<svg xmlns="http://www.w3.org/2000/svg" height="200.0000" stroke-opacity="1" viewBox="0 0 200 200" font-size="1" width="200.0000" xmlns:xlink="http://www.w3.org/1999/xlink" stroke="rgb(0,0,0)" version="1.1"><defs></defs><defs></defs><g stroke-linejoin="miter" stroke-opacity="1.0" fill-opacity="0.0" stroke="rgb(0,0,0)" stroke-width="0.8000000000000002" fill="rgb(0,0,0)" stroke-linecap="butt" stroke-miterlimit="10.0"><defs><clipPath id="myClip1"><path d="M 200.0000,100.0000 c 0.0000,-55.2285 -44.7715,-100.0000 -100.0000 -100.0000c -55.2285,-0.0000 -100.0000,44.7715 -100.0000 100.0000c -0.0000,55.2285 44.7715,100.0000 100.0000 100.0000c 55.2285,0.0000 100.0000,-44.7715 100.0000 -100.0000Z"/></clipPath></defs><g clip-path="url(#myClip1)"><path d="M -0.0000,-0.0000 h 200.0000 "/></g></g><defs></defs><g stroke-linejoin="miter" stroke-opacity="1.0" fill-opacity="0.0" stroke="rgb(0,0,0)" stroke-width="0.8000000000000002" fill="rgb(0,0,0)" stroke-linecap="butt" stroke-miterlimit="10.0"><defs><clipPath id="myClip2"><path d="M 200.0000,100.0000 c 0.0000,-55.2285 -44.7715,-100.0000 -100.0000 -100.0000c -55.2285,-0.0000 -100.0000,44.7715 -100.0000 100.0000c -0.0000,55.2285 44.7715,100.0000 100.0000 100.0000c 55.2285,0.0000 100.0000,-44.7715 100.0000 -100.0000Z"/></clipPath></defs><g clip-path="url(#myClip2)"><path d="M -0.0000,20.0000 h 200.0000 "/></g></g><defs></defs><g stroke-linejoin="miter" stroke-opacity="1.0" fill-opacity="0.0" stroke="rgb(0,0,0)" stroke-width="0.8000000000000002" fill="rgb(0,0,0)" stroke-linecap="butt" stroke-miterlimit="10.0"><defs><clipPath id="myClip3"><path d="M 200.0000,100.0000 c 0.0000,-55.2285 -44.7715,-100.0000 -100.0000 -100.0000c -55.2285,-0.0000 -100.0000,44.7715 -100.0000 100.0000c -0.0000,55.2285 44.7715,100.0000 100.0000 100.0000c 55.2285,0.0000 100.0000,-44.7715 100.0000 -100.0000Z"/></clipPath></defs><g clip-path="url(#myClip3)"><path d="M -0.0000,40.0000 h 200.0000 "/></g></g><defs></defs><g stroke-linejoin="miter" stroke-opacity="1.0" fill-opacity="0.0" stroke="rgb(0,0,0)" stroke-width="0.8000000000000002" fill="rgb(0,0,0)" stroke-linecap="butt" stroke-miterlimit="10.0"><defs><clipPath id="myClip4"><path d="M 200.0000,100.0000 c 0.0000,-55.2285 -44.7715,-100.0000 -100.0000 -100.0000c -55.2285,-0.0000 -100.0000,44.7715 -100.0000 100.0000c -0.0000,55.2285 44.7715,100.0000 100.0000 100.0000c 55.2285,0.0000 100.0000,-44.7715 100.0000 -100.0000Z"/></clipPath></defs><g clip-path="url(#myClip4)"><path d="M -0.0000,60.0000 h 200.0000 "/></g></g><defs></defs><g stroke-linejoin="miter" stroke-opacity="1.0" fill-opacity="0.0" stroke="rgb(0,0,0)" stroke-width="0.8000000000000002" fill="rgb(0,0,0)" stroke-linecap="butt" stroke-miterlimit="10.0"><defs><clipPath id="myClip5"><path d="M 200.0000,100.0000 c 0.0000,-55.2285 -44.7715,-100.0000 -100.0000 -100.0000c -55.2285,-0.0000 -100.0000,44.7715 -100.0000 100.0000c -0.0000,55.2285 44.7715,100.0000 100.0000 100.0000c 55.2285,0.0000 100.0000,-44.7715 100.0000 -100.0000Z"/></clipPath></defs><g clip-path="url(#myClip5)"><path d="M -0.0000,80.0000 h 200.0000 "/></g></g><defs></defs><g stroke-linejoin="miter" stroke-opacity="1.0" fill-opacity="0.0" stroke="rgb(0,0,0)" stroke-width="0.8000000000000002" fill="rgb(0,0,0)" stroke-linecap="butt" stroke-miterlimit="10.0"><defs><clipPath id="myClip6"><path d="M 200.0000,100.0000 c 0.0000,-55.2285 -44.7715,-100.0000 -100.0000 -100.0000c -55.2285,-0.0000 -100.0000,44.7715 -100.0000 100.0000c -0.0000,55.2285 44.7715,100.0000 100.0000 100.0000c 55.2285,0.0000 100.0000,-44.7715 100.0000 -100.0000Z"/></clipPath></defs><g clip-path="url(#myClip6)"><path d="M -0.0000,100.0000 h 200.0000 "/></g></g><defs></defs><g stroke-linejoin="miter" stroke-opacity="1.0" fill-opacity="0.0" stroke="rgb(0,0,0)" stroke-width="0.8000000000000002" fill="rgb(0,0,0)" stroke-linecap="butt" stroke-miterlimit="10.0"><defs><clipPath id="myClip7"><path d="M 200.0000,100.0000 c 0.0000,-55.2285 -44.7715,-100.0000 -100.0000 -100.0000c -55.2285,-0.0000 -100.0000,44.7715 -100.0000 100.0000c -0.0000,55.2285 44.7715,100.0000 100.0000 100.0000c 55.2285,0.0000 100.0000,-44.7715 100.0000 -100.0000Z"/></clipPath></defs><g clip-path="url(#myClip7)"><path d="M -0.0000,120.0000 h 200.0000 "/></g></g><defs></defs><g stroke-linejoin="miter" stroke-opacity="1.0" fill-opacity="0.0" stroke="rgb(0,0,0)" stroke-width="0.8000000000000002" fill="rgb(0,0,0)" stroke-linecap="butt" stroke-miterlimit="10.0"><defs><clipPath id="myClip8"><path d="M 200.0000,100.0000 c 0.0000,-55.2285 -44.7715,-100.0000 -100.0000 -100.0000c -55.2285,-0.0000 -100.0000,44.7715 -100.0000 100.0000c -0.0000,55.2285 44.7715,100.0000 100.0000 100.0000c 55.2285,0.0000 100.0000,-44.7715 100.0000 -100.0000Z"/></clipPath></defs><g clip-path="url(#myClip8)"><path d="M -0.0000,140.0000 h 200.0000 "/></g></g><defs></defs><g stroke-linejoin="miter" stroke-opacity="1.0" fill-opacity="0.0" stroke="rgb(0,0,0)" stroke-width="0.8000000000000002" fill="rgb(0,0,0)" stroke-linecap="butt" stroke-miterlimit="10.0"><defs><clipPath id="myClip9"><path d="M 200.0000,100.0000 c 0.0000,-55.2285 -44.7715,-100.0000 -100.0000 -100.0000c -55.2285,-0.0000 -100.0000,44.7715 -100.0000 100.0000c -0.0000,55.2285 44.7715,100.0000 100.0000 100.0000c 55.2285,0.0000 100.0000,-44.7715 100.0000 -100.0000Z"/></clipPath></defs><g clip-path="url(#myClip9)"><path d="M -0.0000,160.0000 h 200.0000 "/></g></g><defs></defs><g stroke-linejoin="miter" stroke-opacity="1.0" fill-opacity="0.0" stroke="rgb(0,0,0)" stroke-width="0.8000000000000002" fill="rgb(0,0,0)" stroke-linecap="butt" stroke-miterlimit="10.0"><defs><clipPath id="myClip10"><path d="M 200.0000,100.0000 c 0.0000,-55.2285 -44.7715,-100.0000 -100.0000 -100.0000c -55.2285,-0.0000 -100.0000,44.7715 -100.0000 100.0000c -0.0000,55.2285 44.7715,100.0000 100.0000 100.0000c 55.2285,0.0000 100.0000,-44.7715 100.0000 -100.0000Z"/></clipPath></defs><g clip-path="url(#myClip10)"><path d="M -0.0000,180.0000 h 200.0000 "/></g></g><defs></defs><g stroke-linejoin="miter" stroke-opacity="1.0" fill-opacity="0.0" stroke="rgb(0,0,0)" stroke-width="0.8000000000000002" fill="rgb(0,0,0)" stroke-linecap="butt" stroke-miterlimit="10.0"><defs><clipPath id="myClip11"><path d="M 200.0000,100.0000 c 0.0000,-55.2285 -44.7715,-100.0000 -100.0000 -100.0000c -55.2285,-0.0000 -100.0000,44.7715 -100.0000 100.0000c -0.0000,55.2285 44.7715,100.0000 100.0000 100.0000c 55.2285,0.0000 100.0000,-44.7715 100.0000 -100.0000Z"/></clipPath></defs><g clip-path="url(#myClip11)"><path d="M -0.0000,200.0000 h 200.0000 "/></g></g></svg>
